<svg xmlns="http://www.w3.org/2000/svg" viewBox="0 0 300.32 91.42"><defs><style>.a{fill:#fff;}</style></defs><title>header</title><path class="a" d="M25.75,57a28.13,28.13,0,0,1-6.14-2.17,23.07,23.07,0,0,1-5.3-3.6,23.44,23.44,0,0,1-4.13-5A23.15,23.15,0,0,1,7.5,40a30.64,30.64,0,0,1-.18-14.48,27.5,27.5,0,0,1,2.26-6.13,21.83,21.83,0,0,1,3.73-5.2,23.77,23.77,0,0,1,5.07-4,24.31,24.31,0,0,1,6.43-2.6,30.59,30.59,0,0,1,7.67-.92A26.58,26.58,0,0,1,43.33,9a25.59,25.59,0,0,1,9.42,7.21L43,24.55a15.44,15.44,0,0,0-1.9-1.79,20.83,20.83,0,0,0-2.37-1.63,12.47,12.47,0,0,0-3-1.24,11.91,11.91,0,0,0-3.3-.47,12.72,12.72,0,0,0-3.59.52,10.84,10.84,0,0,0-3.26,1.59A11.42,11.42,0,0,0,23,24.12a12.05,12.05,0,0,0-1.78,3.63,15.46,15.46,0,0,0-.65,4.56,14.35,14.35,0,0,0,.82,4.82,12.49,12.49,0,0,0,2.33,4,10.72,10.72,0,0,0,3.77,2.77,12.13,12.13,0,0,0,5,1,13.18,13.18,0,0,0,5.79-1.4A13.88,13.88,0,0,0,43,39.9l9.74,8.37A26,26,0,0,1,44,55.14a25.39,25.39,0,0,1-11.55,2.63A29.79,29.79,0,0,1,25.75,57Z"/><path class="a" d="M86.11,49h-16l-2.5,8H53.71l18-49.74H84.47l18,49.74H88.6ZM82.62,37.85,78.18,23.56H78L73.6,37.85Z"/><path class="a" d="M131.43,57.06l-9.36-15.18H119V57.06H106.07V7.32H126a22.86,22.86,0,0,1,8.08,1.32,14.16,14.16,0,0,1,5.67,3.71A15.8,15.8,0,0,1,143,17.92,21.65,21.65,0,0,1,144.11,25a21.26,21.26,0,0,1-.56,5,15.27,15.27,0,0,1-1.66,4.16,14.09,14.09,0,0,1-2.63,3.24,14.32,14.32,0,0,1-3.56,2.36l0,.1,11.24,17.2ZM119,30.36h4a8.7,8.7,0,0,0,5.28-1.47,4.88,4.88,0,0,0,2-4.2,5.12,5.12,0,0,0-1.89-4.05A8.07,8.07,0,0,0,123,19h-4Z"/><path class="a" d="M184.14,32.48a10.24,10.24,0,0,1,3.16,2.91A12,12,0,0,1,189,38.94a14.94,14.94,0,0,1,.53,4.14,15.2,15.2,0,0,1-1,5.57,12.68,12.68,0,0,1-2.9,4.41A13.29,13.29,0,0,1,180.67,56a21,21,0,0,1-6.89,1.06H150.91V7.32h19.52a28.41,28.41,0,0,1,7.37.86A14.23,14.23,0,0,1,183,10.62a9.94,9.94,0,0,1,3,3.81,12.51,12.51,0,0,1,1,5.06,12.86,12.86,0,0,1-.35,3.1,12.73,12.73,0,0,1-1.18,2.94A9.29,9.29,0,0,1,183,28.26a14.37,14.37,0,0,1-3.71,2.1v.14A18.4,18.4,0,0,1,184.14,32.48ZM163.8,26.94h4.34a6.56,6.56,0,0,0,3.93-1.06,3.37,3.37,0,0,0,1.47-2.9,3.73,3.73,0,0,0-.58-2.09,4,4,0,0,0-1.85-1.43,7.59,7.59,0,0,0-3.07-.55H163.8Zm10.29,17.54a3.87,3.87,0,0,0,1.64-3.35,3.93,3.93,0,0,0-1.52-3.23,7.3,7.3,0,0,0-4.6-1.21H163.8v9h5.88A7.55,7.55,0,0,0,174.09,44.48Z"/><path class="a" d="M208.23,55.89a23.68,23.68,0,0,1-8.2-5.23,23.31,23.31,0,0,1-5.28-8.1,27.54,27.54,0,0,1-1.9-10.35,27.73,27.73,0,0,1,1.9-10.38A23.35,23.35,0,0,1,200,13.72a23.68,23.68,0,0,1,8.2-5.23,30.11,30.11,0,0,1,20.89,0,23.67,23.67,0,0,1,8.17,5.2,23.38,23.38,0,0,1,5.29,8.11,27.77,27.77,0,0,1,1.92,10.43,27.54,27.54,0,0,1-1.92,10.4,23.57,23.57,0,0,1-5.29,8.11,23.79,23.79,0,0,1-8.17,5.19,30.11,30.11,0,0,1-20.89,0ZM224.9,43.61a11.78,11.78,0,0,0,4.23-4.75,14.63,14.63,0,0,0,1.49-6.65,14.6,14.6,0,0,0-1.49-6.65,11.72,11.72,0,0,0-4.23-4.75,11.84,11.84,0,0,0-12.39,0,11.8,11.8,0,0,0-4.26,4.75,14.64,14.64,0,0,0-1.52,6.67,14.52,14.52,0,0,0,1.52,6.65,12,12,0,0,0,4.27,4.75,11.77,11.77,0,0,0,12.38,0Z"/><path class="a" d="M293.78,7.32V57.06H280L263.67,29.85h-.17V57.06H250.27V7.32h13.4l16.61,28h.17v-28Z"/><path class="a" d="M28.37,67.3a5.21,5.21,0,0,1,1.33.62,5.28,5.28,0,0,1,1.1,1,6.13,6.13,0,0,1,.85,1.29,6.68,6.68,0,0,1,.55,1.58,8.71,8.71,0,0,1,.19,1.8,7.63,7.63,0,0,1-.73,3.38,5.53,5.53,0,0,1-2.05,2.3,5.62,5.62,0,0,1-3,.81,3.91,3.91,0,0,1-3.09-1.34h0v6.1H19V67.35h4.56V68.6h0a4.21,4.21,0,0,1,3.34-1.52A5.32,5.32,0,0,1,28.37,67.3Zm-1.18,8.09a3,3,0,0,0,0-3.62,2,2,0,0,0-1.59-.69,2.16,2.16,0,0,0-1.65.69,2.88,2.88,0,0,0,0,3.62,2.16,2.16,0,0,0,1.65.69A2,2,0,0,0,27.19,75.39Z"/><path class="a" d="M42.16,67.08v4.86q-.37,0-1,0a2.6,2.6,0,0,0-1.92.66,2.43,2.43,0,0,0-.66,1.78v5.44H34.08V67.35h4.54V69h0a4.66,4.66,0,0,1,1.56-1.45,3.82,3.82,0,0,1,1.91-.51Z"/><path class="a" d="M44.05,65.23a2.46,2.46,0,0,1-.4-3,2.3,2.3,0,0,1,.93-.87,2.75,2.75,0,0,1,1.35-.32,2.61,2.61,0,0,1,1.87.68,2.27,2.27,0,0,1,.73,1.73,2.33,2.33,0,0,1-.73,1.77,2.88,2.88,0,0,1-3.75,0Zm-.39,2.12h4.52V79.79H43.66Z"/><path class="a" d="M63.12,67.35,58.37,79.79H54.29L49.52,67.35h4.7l2.09,7.05h0l2-7.05Z"/><path class="a" d="M76.28,67.35V79.79H72V78.62h0a3.82,3.82,0,0,1-3.2,1.43,5.62,5.62,0,0,1-2.33-.48,5.31,5.31,0,0,1-1.83-1.32,6.08,6.08,0,0,1-1.19-2,8.35,8.35,0,0,1,0-5.26,6.43,6.43,0,0,1,1.16-2.06,5.43,5.43,0,0,1,1.76-1.32,5,5,0,0,1,2.17-.48,4.11,4.11,0,0,1,3.23,1.49h0V67.35Zm-5,8a2.92,2.92,0,0,0,0-3.6,2,2,0,0,0-1.56-.7,2,2,0,0,0-1.59.69,3,3,0,0,0,0,3.62,2,2,0,0,0,1.59.69A2,2,0,0,0,71.3,75.38Z"/><path class="a" d="M81.11,79.24a6,6,0,0,1-2.34-2.3,7.07,7.07,0,0,1,0-6.74,6,6,0,0,1,2.42-2.3,7.57,7.57,0,0,1,3.54-.82,7.33,7.33,0,0,1,3.06.67,6,6,0,0,1,2.38,1.9l-3,2.57a2.9,2.9,0,0,0-2.3-1.12,2.25,2.25,0,0,0-1.72.69,2.39,2.39,0,0,0-.65,1.75,2.45,2.45,0,0,0,.67,1.78,2.34,2.34,0,0,0,1.75.7,2.83,2.83,0,0,0,2.24-1l3.09,2.69a6.15,6.15,0,0,1-2.35,1.71,8.61,8.61,0,0,1-3.44.65A6.85,6.85,0,0,1,81.11,79.24Z"/><path class="a" d="M104,67.35,97.63,84.81h-4.4l2.1-5.94L90.57,67.35h4.68l2.11,5.89h0l2-5.89Z"/><path class="a" d="M111.57,65.23a2.49,2.49,0,0,1-.41-3,2.3,2.3,0,0,1,.93-.87,2.78,2.78,0,0,1,1.35-.32,2.59,2.59,0,0,1,1.87.68,2.28,2.28,0,0,1,.74,1.73,2.34,2.34,0,0,1-.74,1.77,2.86,2.86,0,0,1-3.74,0Zm-.4,2.12h4.53V79.79h-4.53Z"/><path class="a" d="M117.13,78.19l2.06-2.81a4.86,4.86,0,0,0,3.12,1.42c.61,0,.92-.17.92-.51a.46.46,0,0,0-.1-.29,1.49,1.49,0,0,0-.48-.29,7.65,7.65,0,0,0-1.12-.39,10.34,10.34,0,0,1-1.23-.43,6.52,6.52,0,0,1-1.07-.57,3.86,3.86,0,0,1-.87-.77,3.2,3.2,0,0,1-.57-1,3.72,3.72,0,0,1-.21-1.27,4.17,4.17,0,0,1,.38-1.8,3.5,3.5,0,0,1,1-1.32,4.48,4.48,0,0,1,1.52-.79,6.06,6.06,0,0,1,1.84-.28,8.88,8.88,0,0,1,1.84.19,7.62,7.62,0,0,1,1.55.52,9,9,0,0,1,1.47.87l-2.1,3a4.85,4.85,0,0,0-1.3-.93,3,3,0,0,0-1.31-.34,1.1,1.1,0,0,0-.56.13.4.4,0,0,0-.22.38c0,.13.1.26.32.39a7.41,7.41,0,0,0,1.21.47c.62.2,1.13.39,1.54.56a8.49,8.49,0,0,1,1.16.6,3.33,3.33,0,0,1,.85.75,3.28,3.28,0,0,1,.49,1,4.51,4.51,0,0,1,.17,1.28,4.11,4.11,0,0,1-.33,1.67,3.61,3.61,0,0,1-1,1.3,4.28,4.28,0,0,1-1.65.85,8.07,8.07,0,0,1-2.3.3A7.41,7.41,0,0,1,117.13,78.19Z"/><path class="a" d="M135.37,70.94h-1.13V67.35h1.13V65.57A5,5,0,0,1,136.52,62a4.12,4.12,0,0,1,3.11-1.2,6.26,6.26,0,0,1,2.13.35,4.69,4.69,0,0,1,1.33.67l-.78,3.07a2.48,2.48,0,0,0-.67-.24,3,3,0,0,0-.64-.09,1.21,1.21,0,0,0-.8.23,1,1,0,0,0-.28.82v1.72h2v3.59h-2v8.85h-4.55Z"/><path class="a" d="M145.74,79.24A6,6,0,0,1,143.32,77a7.05,7.05,0,0,1,0-6.75,6,6,0,0,1,2.42-2.3,8.05,8.05,0,0,1,7.08,0,6,6,0,0,1,2.42,2.3,7.05,7.05,0,0,1,0,6.75,6.07,6.07,0,0,1-2.42,2.29,8.14,8.14,0,0,1-7.08,0Zm5.15-3.9a2.78,2.78,0,0,0,0-3.55,2.12,2.12,0,0,0-1.63-.69,2.27,2.27,0,0,0-.9.19,2.05,2.05,0,0,0-.72.51,2.17,2.17,0,0,0-.47.78,2.94,2.94,0,0,0-.17,1,2.74,2.74,0,0,0,.12.81,2.36,2.36,0,0,0,.31.68,2.42,2.42,0,0,0,.49.52,1.79,1.79,0,0,0,.62.34,2.13,2.13,0,0,0,.72.12A2.06,2.06,0,0,0,150.89,75.34Z"/><path class="a" d="M165.88,67.08v4.86q-.37,0-1,0a2.6,2.6,0,0,0-1.92.66,2.43,2.43,0,0,0-.66,1.78v5.44H157.8V67.35h4.54V69h0a4.73,4.73,0,0,1,1.55-1.45,3.83,3.83,0,0,1,1.92-.51Z"/><path class="a" d="M185.15,74.68H177a1.86,1.86,0,0,0,.85,1.32,3,3,0,0,0,1.73.46,3.92,3.92,0,0,0,2.86-1.37l2.35,2.58a6.07,6.07,0,0,1-2.33,1.71,8,8,0,0,1-3.37.67,6.84,6.84,0,0,1-3.33-.81,5.84,5.84,0,0,1-2.34-2.31,6.62,6.62,0,0,1-.85-3.37,6.75,6.75,0,0,1,.82-3.34,5.91,5.91,0,0,1,2.3-2.3,6.64,6.64,0,0,1,3.33-.84,6.5,6.5,0,0,1,2.49.48,6,6,0,0,1,2,1.31,6.07,6.07,0,0,1,1.31,2,7.07,7.07,0,0,1,.47,2.57A5.2,5.2,0,0,1,185.15,74.68ZM177.69,71a2,2,0,0,0-.69,1.22h3.87a2.89,2.89,0,0,0-.25-.7,2.14,2.14,0,0,0-.41-.52,1.47,1.47,0,0,0-.55-.33,1.9,1.9,0,0,0-.68-.11A1.94,1.94,0,0,0,177.69,71Z"/><path class="a" d="M198.7,67.35,194,79.79h-4.08l-4.76-12.44h4.7l2.08,7.05h.05l2-7.05Z"/><path class="a" d="M211.17,74.68H203a1.89,1.89,0,0,0,.85,1.32,3.08,3.08,0,0,0,1.73.46,3.94,3.94,0,0,0,2.87-1.37l2.35,2.58a6.15,6.15,0,0,1-2.33,1.71,8,8,0,0,1-3.37.67,6.91,6.91,0,0,1-3.34-.81,6,6,0,0,1-2.34-2.31,7.2,7.2,0,0,1,0-6.71,5.91,5.91,0,0,1,2.3-2.3,6.62,6.62,0,0,1,3.33-.84,6.5,6.5,0,0,1,2.49.48,6,6,0,0,1,2,1.31,5.9,5.9,0,0,1,1.3,2,6.87,6.87,0,0,1,.48,2.57A5.2,5.2,0,0,1,211.17,74.68ZM203.71,71a1.94,1.94,0,0,0-.69,1.22h3.87a2.9,2.9,0,0,0-.26-.7,1.9,1.9,0,0,0-.4-.52,1.47,1.47,0,0,0-.55-.33,1.9,1.9,0,0,0-.68-.11A1.92,1.92,0,0,0,203.71,71Z"/><path class="a" d="M221,67.08v4.86q-.37,0-1,0a2.6,2.6,0,0,0-1.92.66,2.43,2.43,0,0,0-.66,1.78v5.44H213V67.35h4.54V69h0a4.63,4.63,0,0,1,1.55-1.45,3.83,3.83,0,0,1,1.92-.51Z"/><path class="a" d="M234.94,67.35l-6.39,17.46h-4.4l2.11-5.94-4.77-11.52h4.68l2.11,5.89h.05l2-5.89Z"/><path class="a" d="M238.09,79.24A6.07,6.07,0,0,1,235.67,77a7.05,7.05,0,0,1,0-6.75,6,6,0,0,1,2.42-2.3,7.58,7.58,0,0,1,3.55-.82,7.5,7.5,0,0,1,3.53.82,6,6,0,0,1,2.42,2.3,7,7,0,0,1,0,6.75,6,6,0,0,1-2.42,2.29,7.5,7.5,0,0,1-3.53.81A7.58,7.58,0,0,1,238.09,79.24Zm5.16-3.9a2.8,2.8,0,0,0,0-3.55,2.09,2.09,0,0,0-1.62-.69,2.28,2.28,0,0,0-.91.19,2.05,2.05,0,0,0-.72.51,2.15,2.15,0,0,0-.46.78,2.71,2.71,0,0,0-.17,1,3.1,3.1,0,0,0,.11.81,2.4,2.4,0,0,0,.8,1.2,1.88,1.88,0,0,0,.62.34,2.19,2.19,0,0,0,.73.12A2.09,2.09,0,0,0,243.25,75.34Z"/><path class="a" d="M259.46,67.19a4.24,4.24,0,0,1,1.06.34,3.17,3.17,0,0,1,.9.63,4.16,4.16,0,0,1,.67,1,5,5,0,0,1,.43,1.35,9.54,9.54,0,0,1,.15,1.78v7.53h-4.54V73.35A4.1,4.1,0,0,0,258,72a1.16,1.16,0,0,0-.52-.69,1.87,1.87,0,0,0-.92-.2,1.58,1.58,0,0,0-1.33.61,2.9,2.9,0,0,0-.49,1.83v6.25h-4.54V67.35h4.54v1.36h0a4.63,4.63,0,0,1,3.53-1.63A6.4,6.4,0,0,1,259.46,67.19Z"/><path class="a" d="M276.85,74.68h-8.17a1.89,1.89,0,0,0,.85,1.32,3.08,3.08,0,0,0,1.73.46,3.94,3.94,0,0,0,2.87-1.37l2.34,2.58a6,6,0,0,1-2.32,1.71,8,8,0,0,1-3.37.67,6.88,6.88,0,0,1-3.34-.81,6,6,0,0,1-2.34-2.31,7.12,7.12,0,0,1,0-6.71,5.91,5.91,0,0,1,2.3-2.3,6.59,6.59,0,0,1,3.33-.84,6.5,6.5,0,0,1,2.49.48,5.76,5.76,0,0,1,3.29,3.34,6.87,6.87,0,0,1,.48,2.57A5.2,5.2,0,0,1,276.85,74.68ZM269.38,71a1.93,1.93,0,0,0-.68,1.22h3.87a2.9,2.9,0,0,0-.26-.7,1.9,1.9,0,0,0-.4-.52,1.47,1.47,0,0,0-.55-.33,1.9,1.9,0,0,0-.68-.11A2,2,0,0,0,269.38,71Z"/><path class="a" d="M278.92,79.33a2.34,2.34,0,0,1-.73-1.73,2.28,2.28,0,0,1,.74-1.7,2.5,2.5,0,0,1,3.49,0,2.3,2.3,0,0,1,.72,1.7,2.33,2.33,0,0,1-.72,1.73,2.49,2.49,0,0,1-3.5,0Z"/></svg>