<svg xmlns="http://www.w3.org/2000/svg" viewBox="0 0 29 29"><defs><style>.a{fill:#3a3a3a;}.b{fill:#fff;}</style></defs><title>signal-0</title><path class="a" d="M14.5,24.75l-4.41-4.41a6.23,6.23,0,0,1,8.82,0Z"/><path class="a" d="M7.57,17.82,5,15.3A13.39,13.39,0,0,1,24,15.3l-2.53,2.52A9.81,9.81,0,0,0,7.57,17.82Z"/><path class="a" d="M26.48,12.77a16.95,16.95,0,0,0-24,0L0,10.25a20.52,20.52,0,0,1,29,0Z"/><path class="b" d="M12,23.33a2.35,2.35,0,0,1,2.55-2.45,2.45,2.45,0,1,1,0,4.89A2.34,2.34,0,0,1,12,23.33Zm4.67-20.1-.36,14.83H12.72L12.37,3.23Z"/></svg>