<svg xmlns="http://www.w3.org/2000/svg" viewBox="0 0 60 60"><defs><style>.a{fill:#3478f5;}.b{fill:#fff;}</style></defs><title>vpn</title><rect class="a" width="60" height="60" rx="12.35"/><path class="b" d="M11,40.22,3.51,19.78H6.18l6.08,17.34h.08l6.08-17.34h2.67L13.56,40.22Z"/><path class="b" d="M30.72,19.78a6.27,6.27,0,0,1,6.54,6.56,6.3,6.3,0,0,1-6.57,6.58H26v7.3H23.43V19.78ZM26,30.66h4.08c2.91,0,4.58-1.6,4.58-4.32S33,22.05,30.06,22.05H26Z"/><path class="b" d="M40.18,40.22V19.78h2.48l11.19,16H54v-16h2.52V40.22H54l-11.19-16H42.7v16Z"/></svg>